<svg id="Capa_1" data-name="Capa 1" xmlns="http://www.w3.org/2000/svg" viewBox="0 0 130 130"><defs><style>.cls-1{fill:#099099;}</style></defs><title>Slot Booking Icon</title><path class="cls-1" d="M121.56,37.66H123a2.36,2.36,0,0,0,2.36-2.36V7A2.36,2.36,0,0,0,123,4.67H7A2.36,2.36,0,0,0,4.67,7V35.3A2.36,2.36,0,0,0,7,37.66H8.44v73.53H7a2.36,2.36,0,0,0-2.36,2.36V123A2.36,2.36,0,0,0,7,125.33H123a2.36,2.36,0,0,0,2.36-2.36v-9.43a2.36,2.36,0,0,0-2.36-2.36h-1.41ZM60.29,57h2.36a2.36,2.36,0,0,0,0-4.71H60.29V47.56h56.56v33h-2.36a2.36,2.36,0,0,0,0,4.71h2.36V90H60.29ZM9.38,9.38H120.62V32.95H9.38ZM116.85,37.66v5.18H57.93a2.36,2.36,0,0,0-2.36,2.36V92.34a2.36,2.36,0,0,0,2.36,2.36h58.92v7.07h-66V54.63a2.36,2.36,0,0,0-2.36-2.36H20.22a2.36,2.36,0,0,0-2.36,2.36v47.14H13.15V37.66ZM22.58,111.19V57H46.15v54.21Zm-9.43-4.71h4.71v4.71H13.15Zm107.47,14.14H9.38v-4.71H120.62Zm-69.76-9.43v-4.71h66v4.71Z"/><path class="cls-1" d="M32,71.13H29.65a2.36,2.36,0,1,0,0,4.71v16.5a2.36,2.36,0,1,0,0,4.71H32a2.36,2.36,0,0,0,2.36-2.36V73.48A2.36,2.36,0,0,0,32,71.13Z"/><path class="cls-1" d="M14.48,27.9a2.26,2.26,0,0,0,1,.23c.55,0,1.47-.19,1.47-.9V23.16h1.87c2.67,0,4.64-1.62,4.64-4.37v-.09a4.38,4.38,0,0,0-1.22-3.29,4.79,4.79,0,0,0-3.23-1h-3.9c-.49,0-1.09.3-1.09.89v12A.75.75,0,0,0,14.48,27.9Zm2.51-11h1.87q1.7,0,1.7,1.89V19q0,1.89-1.7,1.89H17Z"/><path class="cls-1" d="M27.09,27.89a2.26,2.26,0,0,0,1,.24c.56,0,1.47-.19,1.47-.9V22.12h3.75v5.11c0,.71.92.91,1.47.91s1.47-.2,1.47-.9v-12c0-.72-.92-.89-1.47-.89s-1.47.17-1.47.89v4.62H29.6V15.24c0-.7-.93-.89-1.47-.89s-1.47.18-1.47.89v12A.75.75,0,0,0,27.09,27.89Z"/><path class="cls-1" d="M39.89,27.77c.52.3,2,.72,2.23-.19l.64-2.36h4l.64,2.36c.25.92,1.69.51,2.23.19a1,1,0,0,0,.61-.85,1.06,1.06,0,0,0,0-.21l-3.53-11.5c-.23-.74-1.24-1-1.92-1s-1.68.22-1.92,1l-3.51,11.5a.83.83,0,0,0,.58,1.06Zm4.85-9.86L46.12,23H43.36Z"/><path class="cls-1" d="M53.64,27.9a2.26,2.26,0,0,0,1,.24c.55,0,1.47-.19,1.47-.9V22.68h1.24l2.58,5c.44.86,1.61.54,2.2.06a1.37,1.37,0,0,0,.59-1,.57.57,0,0,0-.09-.34l-2.3-4.17q2.28-.89,2.28-3.83,0-4-4.64-4h-3.9a.89.89,0,0,0-.9.89v12A.75.75,0,0,0,53.64,27.9Zm2.51-11H58a1.56,1.56,0,0,1,1.7,1.75A1.56,1.56,0,0,1,58,20.42H56.15Z"/><path class="cls-1" d="M66.53,27.9a2.26,2.26,0,0,0,1,.24c.56,0,1.47-.19,1.47-.9V20l1.79,3.28a1,1,0,0,0,.92.55,1.06,1.06,0,0,0,1-.55l1.81-3.09v7.07c0,.72.92.91,1.47.91s1.47-.19,1.47-.9V15.82a1.38,1.38,0,0,0-.42-1.11,1.57,1.57,0,0,0-1-.36,2.34,2.34,0,0,0-2.28,1.47L71.8,19.21l-1.94-3.39a2.35,2.35,0,0,0-2.28-1.47,1.57,1.57,0,0,0-1,.36,1.38,1.38,0,0,0-.42,1.11V27.23A.75.75,0,0,0,66.53,27.9Z"/><path class="cls-1" d="M81.08,27.77c.51.3,2,.72,2.23-.19L84,25.23h4l.64,2.36c.25.91,1.7.5,2.23.19a1,1,0,0,0,.61-.85,1.06,1.06,0,0,0,0-.21l-3.53-11.5c-.23-.76-1.24-1-1.92-1s-1.68.21-1.92,1l-3.51,11.5a.83.83,0,0,0,.57,1.06Zm4.85-9.86L87.31,23H84.56Z"/><path class="cls-1" d="M95.5,27.17a4.85,4.85,0,0,0,3.27,1.07,5.3,5.3,0,0,0,3.4-1.06,3.49,3.49,0,0,0,1.33-2.88c0-1-.52-1.4-1.49-1.4s-1.4.3-1.45.89c-.1,1.07-.47,1.88-1.66,1.88s-1.72-.63-1.72-1.89v-5q0-1.89,1.7-1.89a1.52,1.52,0,0,1,1.68,1.7q.06.89,1.47.89c1,0,1.47-.41,1.47-1.4a3.25,3.25,0,0,0-1.33-2.75,5.51,5.51,0,0,0-3.4-1,4.85,4.85,0,0,0-3.27,1.07,4.21,4.21,0,0,0-1.25,3.37v5A4.21,4.21,0,0,0,95.5,27.17Z"/><path class="cls-1" d="M109.79,22.23a.47.47,0,0,1,.08.26v4.73c0,.72.91.91,1.47.91s1.47-.19,1.47-.9V22.5a.46.46,0,0,1,.08-.26l3.88-6.47a.47.47,0,0,0,0-.21q0-.49-.67-.85c-.68-.36-1.74-.65-2.18.19l-2.62,4.85-2.64-4.85a1.32,1.32,0,0,0-.34-.42c-.49-.35-1.39,0-1.84.24s-.67.52-.67.85a.46.46,0,0,0,0,.21Z"/><path class="cls-1" d="M105.07,80.55a2.36,2.36,0,1,0,2.36,2.36A2.36,2.36,0,0,0,105.07,80.55Z"/><path class="cls-1" d="M74.43,54.63A2.36,2.36,0,1,0,72.07,57,2.36,2.36,0,0,0,74.43,54.63Z"/><path class="cls-1" d="M105.07,73.48V64.06a2.36,2.36,0,0,0-2.36-2.36H95.64V54.63a2.36,2.36,0,0,0-2.36-2.36H83.85a2.36,2.36,0,0,0-2.36,2.36V61.7H74.43a2.36,2.36,0,0,0-2.36,2.36v9.43a2.36,2.36,0,0,0,2.36,2.36H81.5v7.07a2.36,2.36,0,0,0,2.36,2.36h9.43a2.36,2.36,0,0,0,2.36-2.36V75.84h7.07A2.36,2.36,0,0,0,105.07,73.48Zm-4.71-2.36H93.28a2.36,2.36,0,0,0-2.36,2.36v7.07H86.21V73.48a2.36,2.36,0,0,0-2.36-2.36H76.78V66.41h7.07a2.36,2.36,0,0,0,2.36-2.36V57h4.71v7.07a2.36,2.36,0,0,0,2.36,2.36h7.07Z"/></svg>