<?xml version="1.0" encoding="UTF-8"?>
<svg version="1.1" viewBox="0 0 400 227.31" xmlns="http://www.w3.org/2000/svg">
<g fill-rule="evenodd">
<path d="m0 109.84c0 60.409 0.057 109.84 0.127 109.84 0.112 0 5.547-10.932 12.04-24.218 1.162-2.376 4.462-9.079 7.333-14.895l5.222-10.574 2.818-2.738c8.762-8.514 25.579-19.58 43.296-28.491 9.116-4.585 22.931-9.237 34.451-11.603 26.36-5.412 44.951-3.634 66.589 6.367 2.667 1.232 4.886 2.241 4.932 2.241s0.985 0.421 2.087 0.936c15.668 7.323 34.186 12.731 49.508 14.459 4.451 0.502 23.272 0.575 28.22 0.11 10.824-1.018 23.799-3.38 36.043-6.56 2.189-0.568 4.287-1.112 4.662-1.208 11.794-3.024 30.412-9.278 46.447-15.604 4.366-1.723 12.695-5.196 14.952-6.234 0.875-0.403 2.461-1.117 3.524-1.587 2.47-1.091 10.576-5.146 12.507-6.258 0.813-0.467 1.797-1.033 2.187-1.256 0.675-0.387 2.098-1.252 4.863-2.957 6.876-4.24 9.631-6.967 14.775-14.628 1.409-2.097 2.216-2.925 1.496-1.533-0.506 0.98-4.446 9.155-4.446 9.227 0 0.034-1.135 2.403-2.521 5.264s-2.729 5.659-2.984 6.217c-0.254 0.557-0.97 2.041-1.591 3.297-0.62 1.256-1.928 3.972-2.907 6.035-7.363 15.525-9.475 19.726-10.427 20.744-0.972 1.038-1.12 1.207-2.879 3.275-6.215 7.306-12.378 11.607-26.833 18.725-6.895 3.395-19.204 8.798-22.286 9.782-0.5 0.16-1.012 0.365-1.137 0.457-0.125 0.091-0.841 0.379-1.592 0.639-1.969 0.683-4.475 1.614-5.002 1.858-0.251 0.116-0.916 0.363-1.479 0.55-0.562 0.186-2.302 0.812-3.865 1.39-7.54 2.787-17.723 6.204-25.015 8.393-36.636 10.998-68.316 13.961-93.575 8.751-16.435-3.389-29.072-7.782-48.665-16.917-20.243-9.438-41.036-10.41-67.81-3.171-24.368 6.589-52.412 22.504-70.052 39.757l-3.013 2.946v3.372 3.372h200 200v-113.7-113.7h-200-200v109.84m397.53-101.4c-1.608 3.394-3.411 7.144-6.002 12.486-1.062 2.189-2.254 4.673-2.649 5.52-0.396 0.847-1.79 3.749-3.1 6.449-1.309 2.7-2.38 4.936-2.38 4.969 0 0.034-0.934 1.992-2.075 4.353-2.513 5.197-4.778 9.918-5.709 11.897-0.495 1.051-1.598 2.489-3.901 5.084-1.765 1.99-3.404 3.872-3.642 4.183-4.269 5.585-24.888 17.023-43.57 24.17-1.064 0.407-2.278 0.892-2.699 1.077-1.417 0.625-11.919 4.585-13.447 5.071-0.313 0.099-1.745 0.608-3.184 1.13-5.511 2-9.072 3.231-11.483 3.969-1.376 0.421-4.293 1.326-6.481 2.012-4.315 1.353-8.254 2.524-10.233 3.044-0.688 0.181-2.223 0.585-3.411 0.899-10.209 2.697-17.52 4.305-26.265 5.776-0.751 0.126-1.979 0.332-2.729 0.458-18.089 3.035-38.827 2.89-54.804-0.382-11.647-2.385-26.632-7.04-35.251-10.949-15.425-6.996-16.503-7.473-19.919-8.814-21.539-8.453-51.968-5.81-81.84 7.109-6.378 2.758-17.766 8.927-23.709 12.844-1.156 0.761-2.664 1.748-3.352 2.193-8.773 5.678-17.42 12.566-22.837 18.193-3.18 3.302-3.369 3.852 3.398-9.857 2.717-5.503 5.99-12.155 7.274-14.781 1.284-2.627 4.449-9.069 7.035-14.316l4.701-9.54 2.556-2.512c2.455-2.413 6.089-5.454 9.698-8.115 3.45-2.543 14.873-10.202 15.217-10.202 0.115 0 0.243-0.076 0.285-0.17 0.085-0.192 3.306-2.226 5.858-3.698 5.699-3.288 15.988-8.339 20.823-10.221 2.002-0.779 3.843-1.505 4.094-1.612 11.573-4.977 32.868-9.074 47.64-9.166 16.457-0.102 25.361 1.978 42.866 10.017 13.521 6.21 19.193 8.45 28.084 11.094 16.524 4.912 24.865 6.144 41.614 6.144 11.128 0 13.85-0.177 22.74-1.481 15.377-2.256 31.648-6.265 50.939-12.551 5.275-1.719 12.444-4.214 15.122-5.263 0.5-0.196 2.291-0.863 3.979-1.482 21.323-7.821 39.335-16.538 50.256-24.32 2.997-2.136 5.946-5.352 8.869-9.673 1.517-2.243 2.807-4.011 2.877-3.941 0.046 0.046-0.518 1.353-1.253 2.905" fill="#fff"/>
<path d="m396.58 94.972c-5.144 7.661-7.899 10.388-14.775 14.628-2.765 1.705-4.188 2.57-4.863 2.957-0.39 0.223-1.374 0.789-2.187 1.256-1.931 1.112-10.037 5.167-12.507 6.258-1.063 0.47-2.649 1.184-3.524 1.587-11.135 5.125-32.991 13.286-48.323 18.043-4.932 1.53-10.166 3.049-13.076 3.795-0.375 0.096-2.473 0.64-4.662 1.208-29.785 7.736-55.886 9.112-77.974 4.111-12.933-2.929-24.537-6.857-35.797-12.12-1.102-0.515-2.041-0.936-2.087-0.936s-2.265-1.009-4.932-2.241c-5.096-2.355-8.717-3.849-12.126-5.002-22.35-7.559-52.15-4.971-81.986 7.12-15.632 6.334-39.989 21.663-50.224 31.609l-2.818 2.738-5.222 10.574c-2.871 5.816-6.17 12.519-7.331 14.895s-4.373 8.908-7.14 14.515c-2.766 5.608-5.029 10.307-5.029 10.443-0 0.137 1.356-1.078 3.013-2.698 17.64-17.253 45.684-33.168 70.052-39.757 26.774-7.239 47.567-6.267 67.81 3.171 19.593 9.135 32.23 13.528 48.665 16.917 25.259 5.21 56.939 2.247 93.575-8.751 7.292-2.189 17.475-5.606 25.015-8.393 1.563-0.578 3.303-1.204 3.865-1.39 0.563-0.187 1.228-0.434 1.479-0.55 0.527-0.244 3.033-1.175 5.002-1.858 0.751-0.26 1.467-0.548 1.592-0.639 0.125-0.092 0.637-0.297 1.137-0.457 3.082-0.984 15.391-6.387 22.286-9.782 14.455-7.118 20.618-11.419 26.833-18.725 1.759-2.068 1.907-2.237 2.879-3.275 0.952-1.018 3.064-5.219 10.427-20.744 0.979-2.063 2.287-4.779 2.907-6.035 0.621-1.256 1.337-2.74 1.591-3.297 0.255-0.558 1.598-3.356 2.984-6.217s2.521-5.23 2.521-5.264c0-0.072 3.94-8.247 4.446-9.227 0.72-1.392-0.087-0.564-1.496 1.533" fill="#038002"/>
<path d="m397.47 7.206c-0.674 0.968-1.38 1.987-1.567 2.265-2.923 4.321-5.872 7.537-8.869 9.673-7.865 5.605-17.81 10.93-30.953 16.575-5.784 2.484-14.552 6.002-19.303 7.745-1.688 0.619-3.479 1.286-3.979 1.482-1.038 0.407-5.56 2.028-8.755 3.14-17.988 6.259-39.681 11.979-53.44 14.09-12.295 1.887-14.585 2.065-26.606 2.065-22.564 0-40.192-3.986-63.331-14.322-0.375-0.168-3.241-1.48-6.367-2.916-17.505-8.039-26.409-10.119-42.866-10.017-14.772 0.092-36.067 4.189-47.64 9.166-0.251 0.107-2.092 0.833-4.094 1.612-4.835 1.882-15.124 6.933-20.823 10.221-2.552 1.472-5.773 3.506-5.858 3.698-0.042 0.094-0.17 0.17-0.285 0.17-0.344 0-11.767 7.659-15.217 10.202-3.609 2.661-7.243 5.702-9.698 8.115l-2.556 2.512-4.701 9.54c-2.586 5.247-5.751 11.689-7.035 14.316-1.284 2.626-4.557 9.278-7.274 14.781-6.767 13.709-6.578 13.159-3.398 9.857 2.907-3.02 7.109-6.773 10.929-9.764 1.523-1.192 10.027-7.211 11.908-8.429 0.688-0.445 2.196-1.432 3.352-2.193 5.943-3.917 17.331-10.086 23.709-12.844 29.872-12.919 60.301-15.562 81.84-7.109 3.416 1.341 4.494 1.818 19.919 8.814 8.619 3.909 23.604 8.564 35.251 10.949 6.71 1.374 9.825 1.749 20.352 2.449 8.427 0.56 24.561-0.408 34.452-2.067 0.75-0.126 1.978-0.332 2.729-0.458 8.745-1.471 16.056-3.079 26.265-5.776 1.188-0.314 2.723-0.718 3.411-0.899 1.979-0.52 5.918-1.691 10.233-3.044 2.188-0.686 5.105-1.591 6.481-2.012 2.411-0.738 5.972-1.969 11.483-3.969 1.439-0.522 2.871-1.031 3.184-1.13 1.528-0.486 12.03-4.446 13.447-5.071 0.421-0.185 1.635-0.67 2.699-1.077 18.682-7.147 39.301-18.585 43.57-24.17 0.238-0.311 1.877-2.193 3.642-4.183 2.303-2.595 3.406-4.033 3.901-5.084 0.931-1.979 3.196-6.7 5.709-11.897 1.141-2.361 2.075-4.319 2.075-4.353 0-0.033 1.071-2.269 2.38-4.969 1.31-2.7 2.704-5.602 3.1-6.449 0.395-0.847 1.587-3.331 2.649-5.52 5.302-10.928 7.357-15.289 7.255-15.391-0.046-0.046-0.636 0.708-1.31 1.676" fill="#f60"/>
</g>
</svg>